<svg xmlns="http://www.w3.org/2000/svg" viewBox="0 0 200 200" width="200" height="200">
  <!--
    Icons from Lucide (lucide:bone, lucide:paw-print), ISC License.
    https://lucide.dev — also indexed as Iconify “lucide”.
    Inlined for use as a CSS background-image tile.
  -->
  <g
    fill="none"
    stroke="#3d2f24"
    stroke-linecap="round"
    stroke-linejoin="round"
    stroke-opacity="0.1"
    stroke-width="3"
  >
    <g transform="translate(28 44) rotate(-14) translate(-12 -12) scale(1.42)">
      <circle cx="11" cy="4" r="2" />
      <circle cx="18" cy="8" r="2" />
      <circle cx="20" cy="16" r="2" />
      <path
        d="M9 10a5 5 0 0 1 5 5v3.5a3.5 3.5 0 0 1-6.84 1.045q-.64-2.065-2.7-2.705A3.5 3.5 0 0 1 5.5 10Z"
      />
    </g>
    <g transform="translate(118 108) rotate(32) translate(-12 -12) scale(1.67)">
      <path
        d="M17 10c.7-.7 1.69 0 2.5 0a2.5 2.5 0 1 0 0-5a.5.5 0 0 1-.5-.5a2.5 2.5 0 1 0-5 0c0 .81.7 1.8 0 2.5l-7 7c-.7.7-1.69 0-2.5 0a2.5 2.5 0 0 0 0 5c.28 0 .5.22.5.5a2.5 2.5 0 1 0 5 0c0-.81-.7-1.8 0-2.5Z"
      />
    </g>
    <g transform="translate(156 36) rotate(8) translate(-12 -12) scale(0.78)">
      <circle cx="11" cy="4" r="2" />
      <circle cx="18" cy="8" r="2" />
      <circle cx="20" cy="16" r="2" />
      <path
        d="M9 10a5 5 0 0 1 5 5v3.5a3.5 3.5 0 0 1-6.84 1.045q-.64-2.065-2.7-2.705A3.5 3.5 0 0 1 5.5 10Z"
      />
    </g>
    <g transform="translate(74 156) rotate(-24) translate(-12 -12) scale(0.8)">
      <path
        d="M17 10c.7-.7 1.69 0 2.5 0a2.5 2.5 0 1 0 0-5a.5.5 0 0 1-.5-.5a2.5 2.5 0 1 0-5 0c0 .81.7 1.8 0 2.5l-7 7c-.7.7-1.69 0-2.5 0a2.5 2.5 0 0 0 0 5c.28 0 .5.22.5.5a2.5 2.5 0 1 0 5 0c0-.81-.7-1.8 0-2.5Z"
      />
    </g>
  </g>
</svg>
